# xmcd CD database file
#
# Track frame offsets:
#	150
#	25027
#	49095
#	68477
#	95585
#	116750
#	138905
#	169005
#	185927
#	203435
#
# Disc length: 3000 seconds
#
# Revision: 0
# Processed by: cddbd v1.5PL3 Copyright (c) Steve Scherf et al.
# Submitted via: CDex 1.51
#
DISCID=840bb60a
DTITLE=Francie Zucco - Enero!
DYEAR=2000
DGENRE=Jazz
TTITLE0=Where Or When
TTITLE1=Enero - January
TTITLE2=Volare
TTITLE3=Spring Can Really Hang You Up the Most
TTITLE4=You Don't Know What Love Is
TTITLE5=Dime - Feelings
TTITLE6=You Are the Sunshine of My Life
TTITLE7=Torna a Sorrento - Return to Sorrento
TTITLE8=Samba de Uma Nota So - One Note Samba
TTITLE9=The Gentle Rain
EXTD=YEAR: 2000
EXTT0=
EXTT1=
EXTT2=
EXTT3=
EXTT4=
EXTT5=
EXTT6=
EXTT7=
EXTT8=
EXTT9=
PLAYORDER=
